# AST/ASF file generated using VICON BodyLanguage
# -----------------------------------------------
:version 1.10
:name VICON
:units
  mass 1.0
  length 0.45
  angle deg
:documentation
   .ast/.asf automatically generated from VICON data using
   VICON BodyBuilder and BodyLanguage model FoxedUp or BRILLIANT.MOD
:root
   order TX TY TZ RX RY RZ
   axis XYZ
   position 0 0 0  
   orientation 0 0 0 
:bonedata
  begin
     id 1 
     name lhipjoint
     direction 0.671379 -0.66392 0.329334 
     length 2.38647 
     axis 0 0 0  XYZ
  end
  begin
     id 2 
     name lfemur
     direction 0.34202 -0.939693 0  
     length 6.48179  
     axis 0 0 20  XYZ
    dof rx ry rz
    limits (-160.0 20.0)
           (-70.0 70.0)
           (-60.0 70.0)
  end
  begin
     id 3 
     name ltibia
     direction 0.34202 -0.939693 0   
     length 6.86524   
     axis 0 0 20   XYZ
    dof rx
    limits (-10.0 170.0)
  end
  begin
     id 4 
     name lfoot
     direction 0.204886 -0.562919 0.800715   
     length 1.73031   
     axis -90 7.62852e-016 20   XYZ
    dof rx rz
    limits (-45.0 90.0)
           (-70.0 20.0)
  end
  begin
     id 5 
     name ltoes
     direction 1.53548e-011 -4.21841e-011 1   
     length 0.828161   
     axis -90 7.62852e-016 20   XYZ
    dof rx
    limits (-90.0 20.0)
  end
  begin
     id 6 
     name rhipjoint
     direction -0.662732 -0.670855 0.332775   
     length 2.3618  
     axis 0 0 0  XYZ 
  end
  begin
     id 7 
     name rfemur
     direction -0.34202 -0.939693 0   
     length 6.3025   
     axis 0 0 -20   XYZ
    dof rx ry rz
    limits (-160.0 20.0)
           (-70.0 70.0)
           (-70.0 60.0)
  end
  begin
     id 8 
     name rtibia
     direction -0.34202 -0.939693 0   
     length 6.8732   
     axis 0 0 -20   XYZ
    dof rx
    limits (-10.0 170.0)
 end
 begin
     id 9 
     name rfoot
     direction -0.173856 -0.477665 0.861168   
     length 1.54784  
     axis -90 -7.62852e-016 -20   XYZ
    dof rx rz
    limits (-45.0 90.0)
           (-20.0 70.0)
  end
  begin
     id 10 
     name rtoes
     direction -1.53562e-011 -4.21802e-011 1   
     length 0.759618   
     axis -90 -7.62852e-016 -20   XYZ
    dof rx
    limits (-90.0 20.0)
  end
  begin
     id 11 
     name lowerback
     direction -0.0278357 0.999497 -0.0151789   
     length 1.97203   
     axis 0 0 0   XYZ
    dof rx ry rz
    limits (-20.0 45.0)
           (-30.0 30.0)
           (-30.0 30.0)
  end
  begin
     id 12 
     name upperback
     direction -0.00360622 0.997542 0.0699804   
     length 1.94709   
     axis 0 0 0   XYZ
    dof rx ry rz
    limits (-20.0 45.0)
           (-30.0 30.0)
           (-30.0 30.0)
  end
  begin
     id 13 
     name thorax
     direction 0.00907706 0.997048 0.0762461   
     length 1.95722   
     axis 0 0 0   XYZ
    dof rx ry rz
    limits (-20.0 45.0)
           (-30.0 30.0)
           (-30.0 30.0)
  end
  begin
     id 14 
     name lowerneck
     direction -0.0481835 0.99872 -0.0153927   
     length 1.63078   
     axis 0 0 0   XYZ
    dof rx ry rz
    limits (-20.0 45.0)
           (-30.0 30.0)
           (-30.0 30.0)
  end
  begin
     id 15 
     name upperneck
     direction 0.0859716 0.979226 -0.183644   
     length 1.62591   
     axis 0 0 0   XYZ
    dof rx ry rz
    limits (-20.0 45.0)
           (-30.0 30.0)
           (-30.0 30.0)
  end
  begin
     id 16
     name head
     direction 0.0324821 0.997629 -0.0606773  
     length 1.64811  
     axis 0 0 0   XYZ
    dof rx ry rz
    limits (-20.0 45.0)
           (-30.0 30.0)
           (-30.0 30.0)
  end
  begin
     id 17 
     name lclavicle
     direction 0.939609 0.311019 0.142835  
     length 3.70647  
     axis 0 0 0   XYZ
    dof ry rz
    limits (-20.0 10.0)
           (0.0 20.0)
  end
  begin
     id 18 
     name lhumerus
     direction 1 -4.48963e-011 -1.59838e-027   
     length 4.59207   
     axis 180 -30 -90   XYZ
    dof rx ry rz
    limits (-60.0 90.0)
           (-90.0 90.0)
           (-90.0 90.0)
  end
  begin
     id 19
     name lradius
     direction 1 -4.48957e-011 -1.3483e-026   
     length 2.98109   
     axis 180 -30 -90   XYZ
    dof rx
    limits (-10.0 170.0)
  end
  begin
     id 20
     name lwrist
     direction 1 -4.48954e-011 -3.11579e-026   
     length 1.49055   
     axis 2.00652e-014 90 90   XYZ
    dof ry
    limits (-180.0 0.0)
 end
  begin
     id 21 
     name lhand
     direction 1 -4.4911e-011 -6.23158e-026   
     length 0.480203   
     axis 3.97628e-014 90 90   XYZ
    dof rx rz
    limits (-90.0 90.0)
           (-45.0 45.0)
  end
  begin
     id 22 
     name lfingers
     direction 1 -4.48893e-011 -1.24632e-025   
     length 0.387152   
     axis 7.95256e-014 90 90   XYZ
    dof rx
    limits (0.0 90.0)
  end
  begin
     id 23
     name lthumb
     direction 0.707107 -6.35013e-011 0.707107   
     length 0.555875   
     axis -90 45 2.85299e-015   XYZ
    dof rx rz
    limits (-45.0 45.0)
           (-45.0 45.0)
  end
  begin
     id 24 
     name rclavicle
     direction -0.950396 0.30392 0.0661859   
     length 3.70894  
     axis 0 0 0   XYZ 
    dof ry rz
    limits (-10.0 20.0)
           (-20.0 0.0)
  end
  begin
     id 25 
     name rhumerus
     direction -1 -4.48957e-011 -2.96677e-027  
     length 4.76508   
     axis 180 30 90   XYZ
    dof rx ry rz
    limits (-90.0 60.0)
           (-90.0 90.0)
           (-90.0 90.0)
  end
  begin
     id 26 
     name rradius
     direction -1 -4.48974e-011 -1.44501e-026   
     length 2.78902   
     axis 180 30 90   XYZ
    dof rx
    limits (-10.0 170.0)
  end
  begin
     id 27 
     name rwrist
     direction -1 -4.48978e-011 -3.11579e-026   
     length 1.39451   
     axis 2.00652e-014 -90 -90   XYZ
    dof ry
    limits (-180.0 0.0)
  end
  begin
     id 28
     name rhand
     direction -1 -4.48956e-011 -6.23158e-026   
     length 0.721303   
     axis 3.97628e-014 -90 -90   XYZ
    dof rx rz
    limits (-90.0 90.0)
           (-45.0 45.0)
  end
  begin
     id 29
     name rfingers
     direction -1 -4.4899e-011 -1.24632e-025   
     length 0.581533   
     axis 7.95256e-014 -90 -90   XYZ
    dof rx
    limits (0.0 90.0)
  end
  begin
     id 30
     name rthumb
     direction -0.707107 -6.34911e-011 0.707107   
     length 0.834968   
     axis -90 -45 -2.85299e-015   XYZ
    dof rx rz
    limits (-45.0 45.0)
           (-45.0 45.0)
  end
:hierarchy
  begin
    root lhipjoint rhipjoint lowerback
    lhipjoint lfemur
    lfemur ltibia
    ltibia lfoot
    lfoot ltoes
    rhipjoint rfemur
    rfemur rtibia
    rtibia rfoot
    rfoot rtoes
    lowerback upperback
    upperback thorax
    thorax lowerneck lclavicle rclavicle
    lowerneck upperneck
    upperneck head
    lclavicle lhumerus
    lhumerus lradius
    lradius lwrist
    lwrist lhand lthumb
    lhand lfingers
    rclavicle rhumerus
    rhumerus rradius
    rradius rwrist
    rwrist rhand rthumb
    rhand rfingers
  end

#!OML:ASF I:\salsa\salsa 7_09\Patient 1\Session 1\dancerfemale.ASF
:FULLY-SPECIFIED
:DEGREES
1
root 21.3878 16.0098 2.28932 -156.597 -85.7162 164.396
lowerback -1.14974 1.52583 -7.09444
upperback -8.60685 1.61881 1.73797
thorax -8.76645 1.29085 5.74239
lowerneck -2.03324 -4.98061 -15.0378
upperneck 7.5383 -7.44743 15.9654
head 3.7149 -3.65306 7.1185
rclavicle 1.98785e-016 1.15295e-014
rhumerus -44.1129 -31.03 -70.4512
rradius 32.4883
rwrist 12.9168
rhand 0.218834 21.5789
rfingers 7.12502
rthumb 25.8 -6.6916
lclavicle 1.98785e-016 1.15295e-014
lhumerus -48.5659 27.047 79.8156
lradius 37.795
lwrist -15.7791
lhand -5.50744 33.3388
lfingers 7.12502
lthumb 20.3058 62.2973
rfemur -15.8672 -1.61486 19.3396
rtibia 27.1719
rfoot -23.0253 -11.4734
rtoes -25.5937
lfemur -17.3909 -1.61624 -22.2703
ltibia 33.1444
lfoot -27.4315 -1.42923
ltoes 19.1907
2
root 21.3867 16.0161 2.29082 -156.906 -85.7243 164.769
lowerback -1.24808 1.64193 -7.04046
upperback -8.6179 1.77427 1.61299
thorax -8.7367 1.35627 5.56722
lowerneck -1.30496 -5.39286 -15.0551
upperneck 6.89834 -8.03903 15.9472
head 3.49927 -3.97882 7.09137
rclavicle 6.65929e-015 -1.13307e-014
rhumerus -44.6417 -32.0075 -69.7187
rradius 31.8805
rwrist 11.4518
rhand 1.52521 24.9133
rfingers 7.12502
rthumb 27.0504 -3.16931
lclavicle 6.65929e-015 -1.13307e-014
lhumerus -48.4804 25.9922 80.3884
lradius 38.3107
lwrist -15.0757
lhand -8.38983 32.901
lfingers 7.12502
lthumb 17.5337 62.1303
rfemur -16.0179 -1.61923 19.3455
rtibia 27.2349
rfoot -23.0365 -11.3884
rtoes -25.8916
lfemur -17.4155 -1.65855 -22.2512
ltibia 33.068
lfoot -27.5111 -1.31207
ltoes 18.7373
3
root 21.3871 16.0182 2.2908 -157.609 -85.7552 165.488
lowerback -1.27277 1.67243 -6.95878
upperback -8.61664 1.81652 1.55953
thorax -8.71959 1.36773 5.46073
lowerneck -0.915789 -5.69434 -14.9292
upperneck 6.57739 -8.44513 15.6512
head 3.3874 -4.19984 6.95581
rclavicle 1.28216e-014 6.75868e-015
rhumerus -45.0345 -32.9051 -68.9889
rradius 31.1052
rwrist 10.1795
rhand 3.03996 28.1779
rfingers 7.12502
rthumb 28.4987 0.32907
lclavicle 1.28216e-014 6.75868e-015
lhumerus -48.536 25.3018 80.7604
lradius 38.9024
lwrist -14.3767
lhand -8.96543 33.7091
lfingers 7.12502
lthumb 16.9797 62.9869
rfemur -16.0313 -1.61522 19.4087
rtibia 27.1928
rfoot -23.0191 -11.3656
rtoes -25.8905
lfemur -17.451 -1.6829 -22.185
ltibia 33.1047
lfoot -27.5464 -1.30023
ltoes 18.8776
4
root 21.3891 16.0175 2.2904 -158.662 -85.7803 166.535
lowerback -1.23703 1.68088 -6.80036
upperback -8.60504 1.82892 1.50235
thorax -8.71664 1.35917 5.3079
lowerneck -0.96397 -5.84284 -14.58
upperneck 6.61852 -8.61341 15.1774
head 3.39916 -4.2826 6.72943
rclavicle -1.80894e-014 2.78299e-015
rhumerus -45.3642 -33.8663 -68.2719
rradius 30.3077
rwrist 8.87313
rhand 4.9469 31.476
rfingers 7.12502
rthumb 30.3193 3.94702
lclavicle -1.80894e-014 2.78299e-015
lhumerus -48.5493 25.4206 80.5257
lradius 39.0018
lwrist -14.3395
lhand -8.32268 34.1082
lfingers 7.12502
lthumb 17.5983 63.3318
rfemur -16.0204 -1.59356 19.5069
rtibia 27.1753
rfoot -23.0163 -11.3962
rtoes -25.6555
lfemur -17.4637 -1.70165 -22.0859
ltibia 33.1256
lfoot -27.5273 -1.30242
ltoes 19.0902
5
root 21.3922 16.0169 2.29032 -159.285 -85.7789 167.159
lowerback -1.21055 1.67684 -6.69727
upperback -8.5674 1.82746 1.4776
thorax -8.6821 1.3483 5.22264
lowerneck -1.17227 -5.74665 -14.256
upperneck 6.71461 -8.44132 14.8335
head 3.40779 -4.18828 6.56891
rclavicle 1.88845e-015 8.74653e-015
rhumerus -45.9847 -35.6718 -66.5633
rradius 29.0954
rwrist 6.30335
rhand 9.99767 38.1034
rfingers 7.12502
rthumb 35.1241 11.5764
lclavicle 1.88845e-015 8.74653e-015
lhumerus -48.6309 25.313 80.4914
lradius 39.2174
lwrist -14.3863
lhand -8.44495 34.1028
lfingers 7.12502
lthumb 17.4807 63.3368
rfemur -16.0183 -1.55479 19.5555
rtibia 27.1311
rfoot -23.0307 -11.4554
rtoes -25.2962
lfemur -17.5023 -1.73192 -22.0308
ltibia 33.1724
lfoot -27.5455 -1.28058
ltoes 19.1175
6
root 21.3945 16.0168 2.28944 -159.555 -85.7244 167.471
lowerback -1.24016 1.66079 -6.64286
upperback -8.52542 1.81315 1.48112
thorax -8.61234 1.33458 5.19746
lowerneck -1.67354 -5.42961 -13.9887
upperneck 7.01206 -7.96017 14.6075
head 3.48755 -3.92796 6.46873
rclavicle -3.33461e-014 -7.95139e-015
rhumerus -45.952 -36.0696 -66.505
rradius 28.9969
rwrist 6.81634
rhand 10.384 38.0256
rfingers 7.12502
rthumb 35.4904 11.5855
lclavicle -3.33461e-014 -7.95139e-015
lhumerus -48.8466 24.7054 80.8357
lradius 39.7843
lwrist -14.3595
lhand -9.04793 34.4032
lfingers 7.12502
lthumb 16.9003 63.6879
rfemur -16.0712 -1.50613 19.5625
rtibia 27.0876
rfoot -23.0608 -11.5236
rtoes -24.7034
lfemur -17.5786 -1.70399 -22.0273
ltibia 33.2147
lfoot -27.5674 -1.24092
ltoes 18.9615
7
root 21.3948 16.0191 2.28782 -159.859 -85.6603 167.835
lowerback -1.28246 1.6533 -6.58856
upperback -8.51165 1.80871 1.48861
thorax -8.56844 1.32683 5.17611
lowerneck -2.1089 -4.9406 -13.6094
upperneck 7.21031 -7.24698 14.3688
head 3.49084 -3.55376 6.36344
rclavicle -1.19271e-014 -9.54166e-015
rhumerus -45.9559 -36.3139 -66.5119
rradius 28.9931
rwrist 6.96907
rhand 10.6732 37.7972
rfingers 7.12502
rthumb 35.7646 11.4232
lclavicle -1.19271e-014 -9.54166e-015
lhumerus -49.0105 24.4266 80.9567
lradius 39.9694
lwrist -14.5213
lhand -8.97571 34.6786
lfingers 7.12502
lthumb 16.9698 63.9573
rfemur -16.1473 -1.45688 19.5774
rtibia 27.0806
rfoot -23.1125 -11.5506
rtoes -24.401
lfemur -17.6578 -1.66305 -22.0104
ltibia 33.233
lfoot -27.5788 -1.21924
ltoes 18.9066
8
root 21.3946 16.0212 2.28745 -159.867 -85.6004 167.869
lowerback -1.31617 1.65187 -6.5623
upperback -8.48981 1.81221 1.50415
thorax -8.5239 1.32552 5.17852
lowerneck -2.23968 -4.34904 -13.1561
upperneck 7.1796 -6.41193 14.1118
head 3.3592 -3.13054 6.25249
rclavicle -2.94201e-014 -9.74045e-015
rhumerus -45.9418 -36.386 -66.5968
rradius 29.0508
rwrist 6.81934
rhand 10.7167 37.6542
rfingers 7.12502
rthumb 35.8058 11.2902
lclavicle -2.94201e-014 -9.74045e-015
lhumerus -49.0543 24.4585 80.9316
lradius 39.7867
lwrist -14.728
lhand -8.8264 34.8739
lfingers 7.12502
lthumb 17.1135 64.1402
rfemur -16.1929 -1.4306 19.5623
rtibia 27.0997
rfoot -23.1821 -11.5125
rtoes -24.3364
lfemur -17.6828 -1.66472 -22.0189
ltibia 33.2363
lfoot -27.6126 -1.1801
ltoes 18.977
9
root 21.396 16.0201 2.28808 -159.689 -85.4637 167.741
lowerback -1.34846 1.69154 -6.57795
upperback -8.48936 1.86711 1.51261
thorax -8.51403 1.3536 5.19337
lowerneck -2.58607 -3.8502 -12.5144
upperneck 7.53462 -5.7039 13.5503
head 3.38816 -2.76541 5.99812
rclavicle -3.37934e-015 1.43125e-014
rhumerus -45.9173 -36.3306 -66.7159
rradius 29.1152
rwrist 6.57523
rhand 10.6178 37.6629
rfingers 7.12502
rthumb 35.712 11.2761
lclavicle -3.37934e-015 1.43125e-014
lhumerus -49.0778 24.5231 80.9136
lradius 39.525
lwrist -14.9619
lhand -8.90984 34.9364
lfingers 7.12502
lthumb 17.0332 64.2096
rfemur -16.2878 -1.41213 19.5045
rtibia 27.1147
rfoot -23.1729 -11.3471
rtoes -24.0935
lfemur -17.7154 -1.64553 -22.0861
ltibia 33.231
lfoot -27.6283 -1.05258
ltoes 18.7362
10
root 21.399 16.0183 2.28876 -159.736 -85.3445 167.828
lowerback -1.34366 1.75318 -6.54918
upperback -8.48884 1.95002 1.50121
thorax -8.52622 1.3923 5.15902
lowerneck -3.05593 -3.49545 -11.8604
upperneck 8.00837 -5.19053 12.9292
head 3.50615 -2.49452 5.71082
rclavicle -1.58034e-014 4.77083e-015
rhumerus -45.9194 -36.1362 -66.9229
rradius 29.2986
rwrist 6.16968
rhand 10.4958 37.6574
rfingers 7.12502
rthumb 35.5965 11.2428
lclavicle -1.58034e-014 4.77083e-015
lhumerus -49.0825 24.6423 80.8022
lradius 39.1119
lwrist -15.234
lhand -9.04743 34.3532
lfingers 7.12502
lthumb 16.9008 63.6378
rfemur -16.3684 -1.38945 19.4711
rtibia 27.1254
rfoot -23.1503 -11.1254
rtoes -23.2557
lfemur -17.7448 -1.63599 -22.1263
ltibia 33.2131
lfoot -27.6376 -0.927833
ltoes 18.5378
11
root 21.4005 16.0167 2.28629 -159.739 -85.438 167.702
lowerback -1.20979 1.75353 -6.49312
upperback -8.41221 1.95249 1.50193
thorax -8.51605 1.3897 5.12517
lowerneck -3.45171 -3.28301 -11.4919
upperneck 8.32445 -4.87853 12.6004
head 3.61033 -2.32579 5.5563
rclavicle -3.12589e-014 -8.15017e-015
rhumerus -45.9218 -35.8126 -67.2113
rradius 29.5564
rwrist 5.63122
rhand 10.3246 37.7215
rfingers 7.12502
rthumb 35.4341 11.2679
lclavicle -3.12589e-014 -8.15017e-015
lhumerus -49.0598 24.8954 80.5717
lradius 38.6209
lwrist -15.6415
lhand -9.18619 33.28
lfingers 7.12502
lthumb 16.7672 62.576
rfemur -16.2088 -1.39393 19.502
rtibia 27.1354
rfoot -23.2599 -11.1242
rtoes -22.421
lfemur -17.6033 -1.67227 -22.086
ltibia 33.1883
lfoot -27.6747 -1.00058
ltoes 19.0961
12
root 21.3989 16.0149 2.27979 -159.19 -85.6312 166.938
lowerback -1.05179 1.71699 -6.53424
upperback -8.29292 1.90525 1.51634
thorax -8.47207 1.36933 5.16408
lowerneck -3.81555 -3.24016 -11.3489
upperneck 8.61534 -4.80498 12.4611
head 3.7428 -2.27684 5.48837
rclavicle -5.26779e-014 -2.06736e-014
rhumerus -45.9332 -35.4212 -67.4919
rradius 29.7788
rwrist 5.11845
rhand 10.1567 37.7943
rfingers 7.12502
rthumb 35.2749 11.3029
lclavicle -5.26779e-014 -2.06736e-014
lhumerus -49.0066 25.273 80.3239
lradius 38.2323
lwrist -16.1753
lhand -9.09234 32.6121
lfingers 7.12502
lthumb 16.8576 61.9004
rfemur -15.9024 -1.41639 19.5332
rtibia 27.1244
rfoot -23.4652 -11.3597
rtoes -22.2107
lfemur -17.3592 -1.7168 -22.0466
ltibia 33.1704
lfoot -27.6553 -1.19111
ltoes 19.9699
13
root 21.3972 16.0127 2.27537 -158.515 -85.7027 166.169
lowerback -1.00323 1.72389 -6.56607
upperback -8.23021 1.91406 1.47879
thorax -8.43208 1.37316 5.1402
lowerneck -4.00933 -3.3414 -11.4532
upperneck 8.7903 -4.95112 12.6274
head 3.85221 -2.33947 5.54925
rclavicle 2.56432e-014 -2.78299e-015
rhumerus -46.064 -35.1337 -67.6719
rradius 29.9852
rwrist 4.82763
rhand 10.1158 37.8341
rfingers 7.12502
rthumb 35.2361 11.3335
lclavicle 2.56432e-014 -2.78299e-015
lhumerus -48.7577 26.0276 79.8414
lradius 37.5251
lwrist -17.1404
lhand -8.86437 32.7844
lfingers 7.12502
lthumb 17.077 62.0539
rfemur -15.7496 -1.45152 19.5208
rtibia 27.1061
rfoot -23.5906 -11.4926
rtoes -22.1878
lfemur -17.2389 -1.77474 -22.0684
ltibia 33.1531
lfoot -27.596 -1.20462
ltoes 19.9253
14
root 21.3969 16.0115 2.27346 -158.45 -85.7082 166.108
lowerback -0.988336 1.77025 -6.5108
upperback -8.23976 1.97146 1.39164
thorax -8.45201 1.39436 5.01087
lowerneck -3.94891 -3.55648 -11.7397
upperneck 8.80535 -5.28654 13.0975
head 3.90744 -2.49991 5.72967
rclavicle 8.49804e-015 3.18055e-015
rhumerus -46.3176 -35.0588 -67.6784
rradius 30.0868
rwrist 4.8272
rhand 10.1929 37.9768
rfingers 7.12502
rthumb 35.3093 11.4935
lclavicle 8.49804e-015 3.18055e-015
lhumerus -48.4219 26.9725 79.1714
lradius 36.5129
lwrist -18.0806
lhand -8.81822 33.1049
lfingers 7.12502
lthumb 17.1214 62.3705
rfemur -15.7448 -1.47466 19.5251
rtibia 27.1079
rfoot -23.6321 -11.4649
rtoes -21.9339
lfemur -17.2243 -1.85838 -22.0703
ltibia 33.1329
lfoot -27.6335 -1.10551
ltoes 19.2135
15
root 21.397 16.0125 2.27172 -158.599 -85.7278 166.261
lowerback -0.959885 1.79828 -6.43094
upperback -8.26213 2.00268 1.29679
thorax -8.48822 1.40101 4.86099
lowerneck -3.67116 -3.82729 -12.141
upperneck 8.66095 -5.72436 13.7823
head 3.90356 -2.7164 5.99529
rclavicle 4.94477e-015 -3.97569e-015
rhumerus -46.5029 -35.1008 -67.6161
rradius 29.977
rwrist 5.04131
rhand 10.2862 37.9105
rfingers 7.12502
rthumb 35.3978 11.4482
lclavicle 4.94477e-015 -3.97569e-015
lhumerus -48.5013 26.7419 79.2463
lradius 36.7178
lwrist -17.4965
lhand -9.00206 33.3882
lfingers 7.12502
lthumb 16.9445 62.6691
rfemur -15.7586 -1.47731 19.543
rtibia 27.1274
rfoot -23.7581 -11.525
rtoes -22.1113
lfemur -17.2177 -1.92089 -22.0458
ltibia 33.1188
lfoot -27.702 -1.07446
ltoes 18.8424
